<mxfile host="65bd71144e">
    <diagram id="KIbHXO3aSOsjDvjpE3Zt" name="Page-1">
        <mxGraphModel dx="575" dy="441" grid="0" gridSize="10" guides="1" tooltips="1" connect="1" arrows="1" fold="1" page="0" pageScale="1" pageWidth="850" pageHeight="1100" background="#0F172B" math="0" shadow="0">
            <root>
                <mxCell id="0"/>
                <mxCell id="1" parent="0"/>
                <mxCell id="96" value="" style="rounded=1;whiteSpace=wrap;html=1;fillColor=#162456;strokeColor=none;glass=0;shadow=0;arcSize=4;opacity=50;" vertex="1" parent="1">
                    <mxGeometry x="611" y="449.25" width="113" height="123.75" as="geometry"/>
                </mxCell>
                <mxCell id="71" value="" style="rounded=1;whiteSpace=wrap;html=1;fillColor=#162456;strokeColor=none;glass=0;shadow=0;arcSize=4;opacity=50;" vertex="1" parent="1">
                    <mxGeometry x="475.25" y="250" width="113" height="125" as="geometry"/>
                </mxCell>
                <mxCell id="69" value="" style="rounded=1;whiteSpace=wrap;html=1;fillColor=#162456;strokeColor=none;glass=0;shadow=0;arcSize=4;opacity=50;" vertex="1" parent="1">
                    <mxGeometry x="387" y="450.25" width="198" height="206.75" as="geometry"/>
                </mxCell>
                <mxCell id="50" value="" style="rounded=1;whiteSpace=wrap;html=1;fillColor=#162456;strokeColor=none;glass=0;shadow=0;arcSize=4;opacity=50;" vertex="1" parent="1">
                    <mxGeometry x="215" y="250" width="156" height="125" as="geometry"/>
                </mxCell>
                <mxCell id="51" value="External APIs" style="text;html=1;align=center;verticalAlign=middle;resizable=0;points=[];autosize=1;strokeColor=none;fillColor=none;fontColor=#BEDBFF;fontStyle=1" vertex="1" parent="1">
                    <mxGeometry x="215" y="250" width="90" height="26" as="geometry"/>
                </mxCell>
                <mxCell id="87" style="edgeStyle=none;html=1;exitX=1;exitY=0.5;exitDx=0;exitDy=0;entryX=0;entryY=0.5;entryDx=0;entryDy=0;strokeColor=#BEDBFF;" edge="1" parent="1" source="30" target="42">
                    <mxGeometry relative="1" as="geometry"/>
                </mxCell>
                <mxCell id="88" value="import subset&#xa;of search relevant&#xa;data" style="edgeLabel;align=center;verticalAlign=middle;resizable=0;points=[];fontColor=#F8FAFC;labelBackgroundColor=#0F172B;" vertex="1" connectable="0" parent="87">
                    <mxGeometry x="-0.36" y="2" relative="1" as="geometry">
                        <mxPoint x="23" y="2" as="offset"/>
                    </mxGeometry>
                </mxCell>
                <mxCell id="89" style="edgeStyle=none;html=1;exitX=0.5;exitY=1;exitDx=0;exitDy=0;entryX=0;entryY=0.25;entryDx=0;entryDy=0;strokeColor=#BEDBFF;" edge="1" parent="1" source="30" target="55">
                    <mxGeometry relative="1" as="geometry">
                        <Array as="points">
                            <mxPoint x="292" y="500.25"/>
                        </Array>
                    </mxGeometry>
                </mxCell>
                <mxCell id="90" value="import subset&#xa;of point read data" style="edgeLabel;align=center;verticalAlign=middle;resizable=0;points=[];fontColor=#F8FAFC;labelBackgroundColor=#0F172B;" vertex="1" connectable="0" parent="89">
                    <mxGeometry x="-0.4872" y="1" relative="1" as="geometry">
                        <mxPoint as="offset"/>
                    </mxGeometry>
                </mxCell>
                <mxCell id="30" value="" style="rounded=1;whiteSpace=wrap;html=1;fillColor=#020618;strokeColor=none;glass=0;shadow=0;arcSize=4;" vertex="1" parent="1">
                    <mxGeometry x="231" y="288" width="122" height="68" as="geometry"/>
                </mxCell>
                <mxCell id="18" value="" style="shape=image;verticalLabelPosition=bottom;labelBackgroundColor=default;verticalAlign=top;aspect=fixed;imageAspect=0;image=https://www.igdb.com/android-chrome-512x512.png;" vertex="1" parent="1">
                    <mxGeometry x="239" y="297" width="51" height="51" as="geometry"/>
                </mxCell>
                <mxCell id="17" value="" style="shape=image;verticalLabelPosition=bottom;labelBackgroundColor=default;verticalAlign=top;aspect=fixed;imageAspect=0;image=https://pbs.twimg.com/profile_images/1243623122089041920/gVZIvphd_400x400.jpg;" vertex="1" parent="1">
                    <mxGeometry x="296" y="297" width="51" height="51" as="geometry"/>
                </mxCell>
                <mxCell id="42" value="" style="rounded=1;whiteSpace=wrap;html=1;fillColor=#020618;strokeColor=none;glass=0;shadow=0;arcSize=4;" vertex="1" parent="1">
                    <mxGeometry x="493.25" y="284.25" width="76" height="76" as="geometry"/>
                </mxCell>
                <mxCell id="44" value="Mongo DB" style="text;html=1;align=center;verticalAlign=middle;resizable=0;points=[];autosize=1;fontColor=#FFFFFF;fontStyle=0;fontSize=10;" vertex="1" parent="1">
                    <mxGeometry x="498.75" y="333.25" width="65" height="24" as="geometry"/>
                </mxCell>
                <mxCell id="45" value="" style="shape=image;verticalLabelPosition=bottom;labelBackgroundColor=default;verticalAlign=top;aspect=fixed;imageAspect=0;image=https://static-00.iconduck.com/assets.00/mongodb-original-icon-921x2048-hvrb89lu.png;" vertex="1" parent="1">
                    <mxGeometry x="520.6800000000001" y="291.25" width="18.9" height="42" as="geometry"/>
                </mxCell>
                <mxCell id="55" value="" style="rounded=1;whiteSpace=wrap;html=1;fillColor=#020618;strokeColor=none;glass=0;shadow=0;arcSize=4;" vertex="1" parent="1">
                    <mxGeometry x="403.75" y="481.25" width="76" height="76" as="geometry"/>
                </mxCell>
                <mxCell id="54" value="" style="image;sketch=0;aspect=fixed;html=1;points=[];align=center;fontSize=12;image=img/lib/mscae/BlobBlock.svg;" vertex="1" parent="1">
                    <mxGeometry x="421.19000000000005" y="493.25" width="41.12" height="34.55" as="geometry"/>
                </mxCell>
                <mxCell id="56" value="Blob Storage" style="text;html=1;align=center;verticalAlign=middle;resizable=0;points=[];autosize=1;fontColor=#FFFFFF;fontStyle=0;fontSize=10;" vertex="1" parent="1">
                    <mxGeometry x="404.25" y="530.25" width="76" height="24" as="geometry"/>
                </mxCell>
                <mxCell id="85" style="edgeStyle=none;html=1;exitX=1;exitY=0.5;exitDx=0;exitDy=0;entryX=0.5;entryY=1;entryDx=0;entryDy=0;strokeColor=#BEDBFF;" edge="1" parent="1" source="59" target="65">
                    <mxGeometry relative="1" as="geometry">
                        <Array as="points">
                            <mxPoint x="532" y="608"/>
                        </Array>
                    </mxGeometry>
                </mxCell>
                <mxCell id="86" value="REST API" style="edgeLabel;align=center;verticalAlign=middle;resizable=0;points=[];labelBackgroundColor=#162456;fontColor=#F8FAFC;" vertex="1" connectable="0" parent="85">
                    <mxGeometry x="0.4484" y="1" relative="1" as="geometry">
                        <mxPoint y="-2" as="offset"/>
                    </mxGeometry>
                </mxCell>
                <mxCell id="59" value="" style="rounded=1;whiteSpace=wrap;html=1;fillColor=#020618;strokeColor=none;glass=0;shadow=0;arcSize=4;" vertex="1" parent="1">
                    <mxGeometry x="403.5" y="570" width="76" height="76" as="geometry"/>
                </mxCell>
                <mxCell id="61" value="Static Web App" style="text;html=1;align=center;verticalAlign=middle;resizable=0;points=[];autosize=1;fontColor=#FFFFFF;fontStyle=0;fontSize=10;" vertex="1" parent="1">
                    <mxGeometry x="399" y="619" width="86" height="24" as="geometry"/>
                </mxCell>
                <mxCell id="62" value="" style="image;aspect=fixed;html=1;points=[];align=center;fontSize=12;image=img/lib/azure2/preview/Static_Apps.svg;" vertex="1" parent="1">
                    <mxGeometry x="420.25" y="582" width="42.5" height="34" as="geometry"/>
                </mxCell>
                <mxCell id="63" value="" style="shape=image;verticalLabelPosition=bottom;labelBackgroundColor=default;verticalAlign=top;aspect=fixed;imageAspect=0;image=https://download.logo.wine/logo/React_(web_framework)/React_(web_framework)-Logo.wine.png;" vertex="1" parent="1">
                    <mxGeometry x="440.62" y="573" width="38.88" height="25.92" as="geometry"/>
                </mxCell>
                <mxCell id="74" style="edgeStyle=none;html=1;entryX=0.5;entryY=1;entryDx=0;entryDy=0;fontColor=#BEDBFF;strokeColor=#BEDBFF;" edge="1" parent="1" source="65" target="42">
                    <mxGeometry relative="1" as="geometry"/>
                </mxCell>
                <mxCell id="76" value="Fuzzy Search&#xa;Recommandations&#xa;Filtering&#xa;User Data" style="edgeLabel;align=center;verticalAlign=middle;resizable=0;points=[];fontColor=#F8FAFC;labelBackgroundColor=#0F172B;" vertex="1" connectable="0" parent="74">
                    <mxGeometry x="0.2916" relative="1" as="geometry">
                        <mxPoint x="2" y="9" as="offset"/>
                    </mxGeometry>
                </mxCell>
                <mxCell id="92" style="edgeStyle=none;html=1;exitX=0;exitY=0.5;exitDx=0;exitDy=0;entryX=1;entryY=0.5;entryDx=0;entryDy=0;strokeColor=#BEDBFF;endArrow=none;endFill=0;" edge="1" parent="1" source="65" target="55">
                    <mxGeometry relative="1" as="geometry"/>
                </mxCell>
                <mxCell id="98" style="edgeStyle=none;html=1;exitX=1;exitY=0.5;exitDx=0;exitDy=0;entryX=0;entryY=0.5;entryDx=0;entryDy=0;strokeColor=#BEDBFF;" edge="1" parent="1" source="65" target="94">
                    <mxGeometry relative="1" as="geometry"/>
                </mxCell>
                <mxCell id="65" value="" style="rounded=1;whiteSpace=wrap;html=1;fillColor=#020618;strokeColor=none;glass=0;shadow=0;arcSize=4;" vertex="1" parent="1">
                    <mxGeometry x="492.75" y="481.25" width="76" height="76" as="geometry"/>
                </mxCell>
                <mxCell id="64" value="" style="image;aspect=fixed;html=1;points=[];align=center;fontSize=12;image=img/lib/azure2/app_services/App_Service_Plans.svg;" vertex="1" parent="1">
                    <mxGeometry x="514.75" y="493.25" width="34" height="34" as="geometry"/>
                </mxCell>
                <mxCell id="67" value="App Service" style="text;html=1;align=center;verticalAlign=middle;resizable=0;points=[];autosize=1;fontColor=#FFFFFF;fontStyle=0;fontSize=10;" vertex="1" parent="1">
                    <mxGeometry x="494.75" y="530.25" width="72" height="24" as="geometry"/>
                </mxCell>
                <mxCell id="83" style="edgeStyle=none;html=1;entryX=0;entryY=0.5;entryDx=0;entryDy=0;strokeColor=#BEDBFF;" edge="1" parent="1" source="68" target="55">
                    <mxGeometry relative="1" as="geometry">
                        <Array as="points">
                            <mxPoint x="353" y="560"/>
                            <mxPoint x="353" y="519.25"/>
                        </Array>
                    </mxGeometry>
                </mxCell>
                <mxCell id="84" style="edgeStyle=none;html=1;entryX=0;entryY=0.5;entryDx=0;entryDy=0;strokeColor=#BEDBFF;" edge="1" parent="1" source="68" target="59">
                    <mxGeometry relative="1" as="geometry">
                        <Array as="points">
                            <mxPoint x="353" y="560"/>
                            <mxPoint x="354" y="608"/>
                        </Array>
                    </mxGeometry>
                </mxCell>
                <mxCell id="68" value="User" style="verticalLabelPosition=bottom;html=1;verticalAlign=top;align=center;strokeColor=none;fillColor=#BEDBFF;shape=mxgraph.azure.user;fontColor=#FFFFFF;" vertex="1" parent="1">
                    <mxGeometry x="262" y="535" width="47.5" height="50" as="geometry"/>
                </mxCell>
                <mxCell id="70" value="Azure Cloud" style="text;html=1;align=center;verticalAlign=middle;resizable=0;points=[];autosize=1;strokeColor=none;fillColor=none;fontColor=#BEDBFF;fontStyle=1" vertex="1" parent="1">
                    <mxGeometry x="387" y="450.25" width="84" height="26" as="geometry"/>
                </mxCell>
                <mxCell id="72" value="Atlas (AWS)" style="text;html=1;align=center;verticalAlign=middle;resizable=0;points=[];autosize=1;strokeColor=none;fillColor=none;fontColor=#BEDBFF;fontStyle=1" vertex="1" parent="1">
                    <mxGeometry x="473.75" y="250" width="83" height="26" as="geometry"/>
                </mxCell>
                <mxCell id="94" value="" style="rounded=1;whiteSpace=wrap;html=1;fillColor=#020618;strokeColor=none;glass=0;shadow=0;arcSize=4;" vertex="1" parent="1">
                    <mxGeometry x="629" y="481.49999999999994" width="76" height="76" as="geometry"/>
                </mxCell>
                <mxCell id="93" value="" style="shape=image;verticalLabelPosition=bottom;labelBackgroundColor=default;verticalAlign=top;aspect=fixed;imageAspect=0;image=https://upstash.com/logo/upstash-icon-white-bg.png;" vertex="1" parent="1">
                    <mxGeometry x="648.88" y="493.24999999999994" width="37.25" height="37.25" as="geometry"/>
                </mxCell>
                <mxCell id="95" value="Redis" style="text;html=1;align=center;verticalAlign=middle;resizable=0;points=[];autosize=1;fontColor=#FFFFFF;fontStyle=0;fontSize=10;" vertex="1" parent="1">
                    <mxGeometry x="646" y="530.5" width="44" height="24" as="geometry"/>
                </mxCell>
                <mxCell id="97" value="Upstash (AWS)" style="text;html=1;align=center;verticalAlign=middle;resizable=0;points=[];autosize=1;strokeColor=none;fillColor=none;fontColor=#BEDBFF;fontStyle=1" vertex="1" parent="1">
                    <mxGeometry x="611" y="450.25" width="100" height="26" as="geometry"/>
                </mxCell>
                <mxCell id="100" value="0.2€ / 100k commands" style="text;html=1;align=center;verticalAlign=middle;resizable=0;points=[];autosize=1;strokeColor=none;fillColor=none;fontColor=#E8C468;fontSize=5;" vertex="1" parent="1">
                    <mxGeometry x="633.5" y="470" width="69" height="18" as="geometry"/>
                </mxCell>
                <mxCell id="101" value="12.61€ / month" style="text;html=1;align=center;verticalAlign=middle;resizable=0;points=[];autosize=1;strokeColor=none;fillColor=none;fontColor=#E8C468;fontSize=5;" vertex="1" parent="1">
                    <mxGeometry x="505.75" y="468" width="51" height="18" as="geometry"/>
                </mxCell>
                <mxCell id="102" value="10.44€ / 500GB / month" style="text;html=1;align=center;verticalAlign=middle;resizable=0;points=[];autosize=1;strokeColor=none;fillColor=none;fontColor=#E8C468;fontSize=5;" vertex="1" parent="1">
                    <mxGeometry x="406" y="468" width="71" height="18" as="geometry"/>
                </mxCell>
                <mxCell id="103" value="0€ to 100GB bandwith" style="text;html=1;align=center;verticalAlign=middle;resizable=0;points=[];autosize=1;strokeColor=none;fillColor=none;fontColor=#E8C468;fontSize=5;" vertex="1" parent="1">
                    <mxGeometry x="409" y="557.5" width="67" height="18" as="geometry"/>
                </mxCell>
                <mxCell id="104" value="free" style="text;html=1;align=center;verticalAlign=middle;resizable=0;points=[];autosize=1;strokeColor=none;fillColor=none;fontColor=#E8C468;fontSize=5;" vertex="1" parent="1">
                    <mxGeometry x="251" y="284.25" width="27" height="18" as="geometry"/>
                </mxCell>
                <mxCell id="105" value="???" style="text;html=1;align=center;verticalAlign=middle;resizable=0;points=[];autosize=1;strokeColor=none;fillColor=none;fontColor=#E8C468;fontSize=5;" vertex="1" parent="1">
                    <mxGeometry x="309" y="284.25" width="26" height="18" as="geometry"/>
                </mxCell>
                <mxCell id="106" value="66.65€ + (0.47€ / GB) / month" style="text;html=1;align=center;verticalAlign=middle;resizable=0;points=[];autosize=1;strokeColor=none;fillColor=none;fontColor=#E8C468;fontSize=5;" vertex="1" parent="1">
                    <mxGeometry x="488.63" y="270" width="84" height="18" as="geometry"/>
                </mxCell>
                <mxCell id="107" value="Estimation&#xa;105 € / month&#xa;10 € migration" style="text;align=center;verticalAlign=middle;resizable=0;points=[];autosize=1;strokeColor=none;fillColor=none;fontColor=#E8C468;fontStyle=1" vertex="1" parent="1">
                    <mxGeometry x="620.5" y="281" width="94" height="55" as="geometry"/>
                </mxCell>
                <mxCell id="109" value="" style="rounded=1;whiteSpace=wrap;html=1;fillColor=#162456;strokeColor=none;glass=0;shadow=0;arcSize=4;opacity=50;" vertex="1" parent="1">
                    <mxGeometry x="475.13" y="103" width="113" height="123.75" as="geometry"/>
                </mxCell>
                <mxCell id="115" style="edgeStyle=none;html=1;exitX=0;exitY=0.5;exitDx=0;exitDy=0;fontColor=#BEDBFF;strokeColor=#BEDBFF;endArrow=none;endFill=0;" edge="1" parent="1" source="110">
                    <mxGeometry relative="1" as="geometry">
                        <mxPoint x="423" y="303" as="targetPoint"/>
                        <Array as="points">
                            <mxPoint x="422" y="173"/>
                        </Array>
                    </mxGeometry>
                </mxCell>
                <mxCell id="110" value="" style="rounded=1;whiteSpace=wrap;html=1;fillColor=#020618;strokeColor=none;glass=0;shadow=0;arcSize=4;" vertex="1" parent="1">
                    <mxGeometry x="493.13" y="135.24999999999994" width="76" height="76" as="geometry"/>
                </mxCell>
                <mxCell id="112" value="Embedding" style="text;html=1;align=center;verticalAlign=middle;resizable=0;points=[];autosize=1;fontColor=#FFFFFF;fontStyle=0;fontSize=10;" vertex="1" parent="1">
                    <mxGeometry x="498.13" y="184.25" width="69" height="24" as="geometry"/>
                </mxCell>
                <mxCell id="113" value="OpenAI" style="text;html=1;align=center;verticalAlign=middle;resizable=0;points=[];autosize=1;strokeColor=none;fillColor=none;fontColor=#BEDBFF;fontStyle=1" vertex="1" parent="1">
                    <mxGeometry x="472.13" y="103" width="59" height="26" as="geometry"/>
                </mxCell>
                <mxCell id="114" value="1€ / 150.000 Embeddings" style="text;html=1;align=center;verticalAlign=middle;resizable=0;points=[];autosize=1;strokeColor=none;fillColor=none;fontColor=#E8C468;fontSize=5;" vertex="1" parent="1">
                    <mxGeometry x="494.63" y="123.75" width="75" height="18" as="geometry"/>
                </mxCell>
                <mxCell id="108" value="" style="shape=image;verticalLabelPosition=bottom;labelBackgroundColor=default;verticalAlign=top;aspect=fixed;imageAspect=0;image=https://static.vecteezy.com/system/resources/previews/021/495/993/non_2x/chatgpt-openai-logo-icon-free-png.png;" vertex="1" parent="1">
                    <mxGeometry x="514.24" y="143.16000000000003" width="33.77" height="38.39" as="geometry"/>
                </mxCell>
                <mxCell id="118" value="" style="shape=image;verticalLabelPosition=bottom;labelBackgroundColor=default;verticalAlign=top;aspect=fixed;imageAspect=0;image=data:image/svg+xml,PHN2ZyB4bWxucz0iaHR0cDovL3d3dy53My5vcmcvMjAwMC9zdmciIGhlaWdodD0iNDhweCIgd2lkdGg9IjQ4cHgiIHZpZXdCb3g9IjAgMCA0OCA0OCI+PHBhdGggZD0iTTM1LjU0NyA0Mi40MzFsLTMuMTgyLTMuMTgyLTIuMTIxIDIuMTIxIDMuMTgyIDMuMTgyYy41ODYuNTg2IDEuNTM2LjU4NiAyLjEyMSAwUzM2LjEzMyA0My4wMTcgMzUuNTQ3IDQyLjQzMXpNMzguNTQ3IDI0LjQzMWwtMy4xODItMy4xODItMi4xMjEgMi4xMjEgMy4xODIgMy4xODJjLjU4Ni41ODYgMS41MzYuNTg2IDIuMTIxIDBTMzkuMTMzIDI1LjAxNyAzOC41NDcgMjQuNDMxek0xMi42ODMgNDIuNDMxbDMuMTgyLTMuMTgyIDIuMTIxIDIuMTIxLTMuMTgyIDMuMTgyYy0uNTg2LjU4Ni0xLjUzNi41ODYtMi4xMjEgMFMxMi4wOTcgNDMuMDE3IDEyLjY4MyA0Mi40MzF6TTkuNDMzIDI0LjQzMWwzLjE4Mi0zLjE4MiAyLjEyMSAyLjEyMS0zLjE4MiAzLjE4MmMtLjU4Ni41ODYtMS41MzYuNTg2LTIuMTIxIDBTOC44NDcgMjUuMDE3IDkuNDMzIDI0LjQzMXoiIGZpbGw9IiNmZmNjODAiLz48cGF0aCBkPSJNMzggOGMwLTEuOTMzLTEuMTQ5LTMtMy4yMzEtM1MzMSA3LjU2NyAzMSA5LjVjMCAxIDEuOTIzIDEuNSAzIDEuNUMzNi4wODIgMTEgMzggOS45MzMgMzggOHpNMTAgOGMwLTEuOTMzIDEuMTQ5LTMgMy4yMzEtM1MxNyA3LjU2NyAxNyA5LjVjMCAxLTEuOTIzIDEuNS0zIDEuNUMxMS45MTggMTEgMTAgOS45MzMgMTAgOHoiIGZpbGw9IiM0ZGQwZTEiLz48cGF0aCBkPSJNMzUgN0ExIDEgMCAxIDAgMzUgOSAxIDEgMCAxIDAgMzUgN3pNMTMgN0ExIDEgMCAxIDAgMTMgOSAxIDEgMCAxIDAgMTMgN3oiIGZpbGw9IiM0MjQyNDIiLz48cGF0aCBkPSJNMzcsMzRjMCw0Ljc3NC0zLjIxOSwxMC0xMy4zMSwxMEMxNS41NjgsNDQsMTEsMzguNzc0LDExLDM0YzAtNSwxLTUuODA2LDEtMTBjMC00LjY4OCwwLTcsMC0xMCBjMC00Ljc3NCwzLjA3Ni0xMSwxMS42OS0xMVMzNiw2Ljk5MSwzNiwxM2MwLDMtMC4yMzcsNS40NTMsMCwxMEMzNi4xODYsMjYuNTYyLDM3LDMxLDM3LDM0eiIgZmlsbD0iIzRkZDBlMSIvPjxnPjxwYXRoIGQ9Ik0yOSA2QTQgNCAwIDEgMCAyOSAxNCA0IDQgMCAxIDAgMjkgNnpNMTkgNkE0IDQgMCAxIDAgMTkgMTQgNCA0IDAgMSAwIDE5IDZ6IiBmaWxsPSIjZjVmNWY1Ii8+PC9nPjxnPjxwYXRoIGQ9Ik0yNCAyMGMwIC41NTIuNDQ4IDEgMSAxczEtLjQ0OCAxLTF2LTNoLTJWMjB6TTIyIDIwYzAgLjU1Mi40NDggMSAxIDFzMS0uNDQ4IDEtMXYtM2gtMlYyMHoiIGZpbGw9IiNlZWUiLz48L2c+PHBhdGggZD0iTTI2LjUsMThjLTAuNDEyLDAtMC42NTMtMC4wODUtMS4wMTEtMC4yMDVjLTAuOTc1LTAuMzI4LTIuMDIxLTAuMzI2LTIuOTk2LDAuMDAyIEMyMi4xMzgsMTcuOTE2LDIxLjkxLDE4LDIxLjUsMThjLTEuMzM0LDAtMS41LTEtMS41LTEuNWMwLTEuNSwxLjUtMi41LDMtMi41YzAuODM1LDAsMS4xNjUsMCwyLDBjMS41LDAsMywxLDMsMi41IEMyOCwxNywyNy44MzQsMTgsMjYuNSwxOHoiIGZpbGw9IiNmZmNjODAiLz48Zz48cGF0aCBkPSJNMjcgOUExIDEgMCAxIDAgMjcgMTEgMSAxIDAgMSAwIDI3IDl6TTE3IDlBMSAxIDAgMSAwIDE3IDExIDEgMSAwIDEgMCAxNyA5ek0yNCAxM0EyIDEgMCAxIDAgMjQgMTUgMiAxIDAgMSAwIDI0IDEzeiIgZmlsbD0iIzQyNDI0MiIvPjwvZz48L3N2Zz4=;" vertex="1" parent="1">
                    <mxGeometry x="538" y="493.25" width="17" height="17" as="geometry"/>
                </mxCell>
            </root>
        </mxGraphModel>
    </diagram>
</mxfile>
